PathFileType	4	(X/Y/Z)	C:\Users\Biomechanik\SynologyDrive\AlexP\Athlete_03\Athlete_3_25_03_31\Deadlift_bw_01\marker_experimental.trc
DataRate	CameraRate	NumFrames	NumMarkers	Units	OrigDataRate	OrigDataStartFrame	OrigNumFrames
200.000000	200.000000	4	55	mm	200.000000	763	1527
Frame#	Time	BL			BR			GLAB			RFHD			LFHD			C7			T6			SPINMOL			SPINM2			SPINM3			T12			BELTOL			BELT2			BELT3			SACROL			SACR2			SACR3			LTHOL			LTH2			LTH3			LSHAOL			LSHA2			LSHA3			LHEE			LTOE			LM5			RTHOL			RTH2			RTH3			RSHAOL			RSHA2			RSHA3			RHEE			RTOE			RM5			STRN			XIPH			LACR			LUAOL			LUA2			LUA3			LLAOL			LLA2			LLA3			LWRR			LWRU			RACR			RUAOL			RUA2			RUA3			RLAOL			RLA2			RLA3			RWRR			RWRU			
		X1	Y1	Z1	X2	Y2	Z2	X3	Y3	Z3	X4	Y4	Z4	X5	Y5	Z5	X6	Y6	Z6	X7	Y7	Z7	X8	Y8	Z8	X9	Y9	Z9	X10	Y10	Z10	X11	Y11	Z11	X12	Y12	Z12	X13	Y13	Z13	X14	Y14	Z14	X15	Y15	Z15	X16	Y16	Z16	X17	Y17	Z17	X18	Y18	Z18	X19	Y19	Z19	X20	Y20	Z20	X21	Y21	Z21	X22	Y22	Z22	X23	Y23	Z23	X24	Y24	Z24	X25	Y25	Z25	X26	Y26	Z26	X27	Y27	Z27	X28	Y28	Z28	X29	Y29	Z29	X30	Y30	Z30	X31	Y31	Z31	X32	Y32	Z32	X33	Y33	Z33	X34	Y34	Z34	X35	Y35	Z35	X36	Y36	Z36	X37	Y37	Z37	X38	Y38	Z38	X39	Y39	Z39	X40	Y40	Z40	X41	Y41	Z41	X42	Y42	Z42	X43	Y43	Z43	X44	Y44	Z44	X45	Y45	Z45	X46	Y46	Z46	X47	Y47	Z47	X48	Y48	Z48	X49	Y49	Z49	X50	Y50	Z50	X51	Y51	Z51	X52	Y52	Z52	X53	Y53	Z53	X54	Y54	Z54	X55	Y55	Z55	

764	3.815	1214.246337890625	39.25752639770522	-2269.232177734375	1226.857666015625	29.84156990051271	-248.7999572753906	313.3332214355469	1630.446533203125	-1199.047729492188	261.1355895996094	1649.626220703125	-1135.5400390625	265.3906860351562	1647.346801757812	-1270.521606445312	106.3602447509766	1445.486938476562	-1204.63623046875	66.6324462890625	1271.882690429688	-1213.247802734375	64.97837066650391	1237.98681640625	-1235.97802734375	60.42809295654297	1228.171752929688	-1186.648803710938	70.07279205322266	1173.283325195312	-1222.866577148438	79.30290222167969	1118.43408203125	-1220.979614257812	54.37286376953125	1095.276977539062	-1235.96435546875	55.39578247070312	1091.670654296875	-1185.8837890625	44.39133834838867	1032.891479492188	-1215.880859375	41.04252624511719	962.6871337890626	-1239.025756835938	43.15301895141602	959.2780761718751	-1187.662841796875	21.69937705993652	903.4257812500001	-1216.116088867188	138.0063934326172	686.0997314453126	-1405.4873046875	87.49955749511719	631.8956298828126	-1376.2177734375	134.9173431396484	626.2915039062501	-1392.2451171875	124.5208587646484	327.1228637695314	-1406.15771484375	80.13922882080078	261.7168579101564	-1394.655517578125	129.3557739257812	265.3690490722657	-1402.981323242188	75.39772033691406	68.1559600830079	-1321.304077148438	292.9796752929688	49.15853881835945	-1332.526000976562	242.5662689208984	29.08211517333993	-1432.252685546875	122.9827651977539	698.3270263671876	-1025.616088867188	178.3854675292969	641.9678344726564	-1014.583251953125	131.890869140625	637.3457641601564	-1031.825439453125	106.8264007568359	343.8141479492188	-1017.8330078125	142.9896545410156	274.1419982910157	-1012.764282226562	96.631103515625	282.6786193847657	-1028.283813476562	74.94517517089844	61.1288032531739	-1113.289916992188	288.6956481933594	48.68964004516608	-1101.644287109375	236.7538604736328	38.55737304687506	-1001.898559570312	286.7229614257812	1363.69677734375	-1209.318969726562	327.0087890625	1228.423217773438	-1209.248046875	200.9225769042969	1404.0126953125	-1385.057006835938	244.4003753662109	1251.770385742188	-1489.86572265625	248.5714569091797	1191.07275390625	-1514.563720703125	280.7431945800781	1199.715087890625	-1474.0341796875	300.2891235351562	985.5896606445314	-1513.4921875	260.837646484375	920.3609008789064	-1534.824951171875	305.5296630859375	923.8969116210939	-1511.778442382812	318.3081970214844	815.8281860351564	-1503.756591796875	307.5052185058594	824.0508422851564	-1426.181762695312	217.1433563232422	1403.57470703125	-1035.956420898438	245.5462188720703	1247.962036132812	-940.1284790039061	276.5823364257812	1189.122314453125	-948.7231445312499	236.6636657714844	1187.298217773438	-914.2474365234374	283.8851623535156	964.5768432617188	-922.4226074218749	341.1668701171875	911.4840087890626	-937.41845703125	292.8108520507812	902.4717407226562	-927.751953125	326.7125244140625	816.0833129882814	-944.8483276367188	315.3766479492188	814.7573242187501	-1022.63232421875	
765	3.82	1214.246337890625	39.2572174072267	-2269.231689453125	1226.857543945312	29.8420925140381	-248.800048828125	313.3326110839844	1630.430053710938	-1199.143188476562	261.1313781738281	1649.626098632812	-1135.637451171875	265.4032592773438	1647.328369140625	-1270.6142578125	106.3429565429688	1445.502075195312	-1204.726806640625	66.58186340332031	1271.902587890625	-1213.32080078125	64.93412017822266	1237.99658203125	-1236.04541015625	60.37167739868164	1228.189208984375	-1186.713256835938	70.02013397216797	1173.2958984375	-1222.9189453125	79.24684143066406	1118.434814453125	-1221.020141601562	54.32608032226562	1095.2890625	-1236.0087890625	55.33988952636719	1091.674682617188	-1185.919799804688	44.33924102783203	1032.892700195312	-1215.912109375	40.97971343994141	962.6747436523439	-1239.052734375	43.09025955200195	959.2675781250001	-1187.68896484375	21.6497917175293	903.4217529296876	-1216.142944335938	137.969482421875	686.0856933593751	-1405.507690429688	87.47608184814453	631.8843994140626	-1376.232177734375	134.8918914794922	626.2857055664064	-1392.258911132812	124.514274597168	327.1163635253907	-1406.162963867188	80.13443756103516	261.7098388671876	-1394.655517578125	129.3487396240234	265.3657836914064	-1402.984130859375	75.39813995361328	68.15234375000009	-1321.305297851562	292.9789123535156	49.15835189819344	-1332.524291992188	242.5616607666016	29.08951950073251	-1432.256469726562	122.9600296020508	698.3173828125001	-1025.633422851562	178.3757629394531	641.9689331054689	-1014.601501464844	131.8790435791016	637.3367919921876	-1031.839965820312	106.8465118408203	343.8134460449219	-1017.834594726562	143.0099945068359	274.1423645019532	-1012.768798828125	96.64896392822266	282.6796569824219	-1028.2822265625	74.94615936279297	61.12770843505866	-1113.294067382812	288.6978454589844	48.6883392333985	-1101.646606445312	236.7503662109375	38.5593338012696	-1001.902954101562	286.6940002441406	1363.682250976562	-1209.376953125	326.9490966796875	1228.4013671875	-1209.283203125	200.9267120361328	1403.9892578125	-1385.13037109375	244.4026794433594	1251.728393554688	-1489.8935546875	248.5535430908203	1191.002075195312	-1514.576904296875	280.7261657714844	1199.685913085938	-1474.079833984375	300.255126953125	985.5622558593751	-1513.529052734375	260.7895812988281	920.3175048828126	-1534.851318359375	305.476806640625	923.8413696289064	-1511.798461914062	318.2440185546875	815.7792968750001	-1503.77392578125	307.405029296875	824.0053100585939	-1426.195556640625	217.0780944824219	1403.582153320312	-1036.05810546875	245.4365844726562	1247.973022460938	-940.1927490234374	276.4626159667969	1189.1357421875	-948.8239135742186	236.5384063720703	1187.319091796875	-914.2756958007811	283.7396545410156	964.586669921875	-922.4379272460936	341.0294189453125	911.5016479492189	-937.4202880859375	292.6635131835938	902.4830932617188	-927.7658081054688	326.5584106445312	816.0898437500001	-944.8502197265625	315.2469482421875	814.7698974609376	-1022.639770507812	
766	3.825	1214.246337890625	39.25702667236342	-2269.231689453125	1226.857299804688	29.84290885925294	-248.8000640869141	313.331298828125	1630.413208007812	-1199.239379882812	261.1287536621094	1649.626586914062	-1135.735107421875	265.4166870117188	1647.310302734375	-1270.707763671875	106.3252792358398	1445.517578125	-1204.817016601562	66.52989959716797	1271.922973632812	-1213.392456054688	64.88937377929688	1238.00634765625	-1236.111206054688	60.3146858215332	1228.206298828125	-1186.776489257812	69.96736907958984	1173.308227539062	-1222.969604492188	79.18998718261719	1118.435302734375	-1221.05908203125	54.27578353881836	1095.30126953125	-1236.050415039062	55.28342437744141	1091.678588867188	-1185.9541015625	44.28533935546875	1032.894287109375	-1215.9423828125	40.91609954833984	962.6632690429689	-1239.079223632812	43.02656936645508	959.2569580078126	-1187.714599609375	21.59911346435547	903.4160766601564	-1216.170532226562	137.9265747070312	686.0758056640626	-1405.525756835938	87.45065307617188	631.8730468750001	-1376.243774414062	134.8626251220703	626.2809448242189	-1392.271484375	124.5057754516602	327.1100463867189	-1406.16650390625	80.12794494628906	261.7028808593751	-1394.6533203125	129.3399963378906	265.3626403808595	-1402.985473632812	75.39846038818359	68.14878082275399	-1321.306274414062	292.97802734375	49.15856552124031	-1332.522705078125	242.5573883056641	29.09611892700204	-1432.260131835938	122.9366226196289	698.3071899414064	-1025.651123046875	178.3655700683594	641.9700317382814	-1014.619384765625	131.8668975830078	637.3276367187501	-1031.854248046875	106.8662185668945	343.8124694824219	-1017.836669921875	143.0300140380859	274.1425476074219	-1012.774780273438	96.66654205322266	282.6806335449219	-1028.281616210938	74.94781494140625	61.12736129760749	-1113.2978515625	288.7000427246094	48.68678283691413	-1101.648803710938	236.7455749511719	38.56171035766608	-1001.907653808594	286.6636352539062	1363.66748046875	-1209.435668945312	326.8887329101562	1228.378173828125	-1209.319702148438	200.9282379150391	1403.964599609375	-1385.2041015625	244.4036102294922	1251.686401367188	-1489.923950195312	248.5334625244141	1190.931396484375	-1514.582641601562	280.7064819335938	1199.655517578125	-1474.126342773438	300.2171630859375	985.5363159179689	-1513.566650390625	260.7408752441406	920.2744140625001	-1534.880493164062	305.4233093261719	923.7900390625001	-1511.824096679688	318.1792602539062	815.7278442382814	-1503.79248046875	307.303955078125	823.9601440429689	-1426.211791992188	217.0162506103516	1403.5810546875	-1036.16796875	245.3268737792969	1247.980834960938	-940.2664794921874	276.3472900390625	1189.149291992188	-948.9317016601561	236.4179077148438	1187.339721679688	-914.3044433593749	283.5976257324219	964.5972290039062	-922.4527587890624	340.8931274414062	911.5191040039064	-937.4228515625	292.5199584960938	902.4948120117188	-927.7796020507812	326.4067077636719	816.0967407226564	-944.8509521484375	315.1189270019531	814.7818603515626	-1022.645935058594	
767	3.83	1214.24609375	39.25691986083999	-2269.2314453125	1226.857299804688	29.84396362304689	-248.7998199462891	313.3294982910156	1630.395874023438	-1199.335693359375	261.1278381347656	1649.627807617188	-1135.832641601562	265.4310302734375	1647.292236328125	-1270.802124023438	106.3073883056641	1445.533447265625	-1204.906860351562	66.47676849365234	1271.943969726562	-1213.46240234375	64.84430694580078	1238.01611328125	-1236.175170898438	60.25737762451172	1228.22314453125	-1186.83837890625	69.91460418701172	1173.320190429688	-1223.0185546875	79.13238525390625	1118.435791015625	-1221.0966796875	54.22122955322266	1095.3134765625	-1236.089599609375	55.22639083862305	1091.6826171875	-1185.986694335938	44.22930526733398	1032.896484375	-1215.972045898438	40.85213851928711	962.6531982421876	-1239.105224609375	42.96212387084961	959.2466430664064	-1187.739379882812	21.5470142364502	903.4093017578126	-1216.198608398438	137.8788299560547	686.0694580078126	-1405.541748046875	87.42347717285156	631.8616333007814	-1376.252685546875	134.8297576904297	626.2772216796876	-1392.283081054688	124.4957656860352	327.1038513183595	-1406.168701171875	80.12005615234375	261.6959533691407	-1394.649291992188	129.3298950195312	265.3595581054689	-1402.985473632812	75.39865112304688	68.14527893066415	-1321.30712890625	292.9770202636719	49.15909576416023	-1332.521484375	242.5532531738281	29.10195732116708	-1432.263427734375	122.9120788574219	698.2965087890626	-1025.669067382812	178.3543243408203	641.9710693359376	-1014.636657714844	131.8538818359375	637.3184814453126	-1031.868041992188	106.8848495483398	343.8112487792969	-1017.839233398438	143.0491180419922	274.1425476074219	-1012.781982421875	96.68323516845703	282.6814575195313	-1028.281860351562	74.9500732421875	61.1276931762696	-1113.30078125	288.7021484375	48.68502426147467	-1101.651000976562	236.7398529052734	38.56405258178717	-1001.912780761719	286.6319274902344	1363.652465820312	-1209.4951171875	326.8277893066406	1228.353637695312	-1209.357299804688	200.9270782470703	1403.938842773438	-1385.27783203125	244.4026947021484	1251.644409179688	-1489.957153320312	248.5102844238281	1190.861938476562	-1514.5810546875	280.6842041015625	1199.62353515625	-1474.173461914062	300.17529296875	985.5112304687501	-1513.6044921875	260.6915893554688	920.2317504882814	-1534.912475585938	305.3692932128906	923.7431030273439	-1511.855224609375	318.1136779785156	815.6739501953126	-1503.811767578125	307.2025756835938	823.9152832031251	-1426.23046875	216.9578094482422	1403.573120117188	-1036.283813476562	245.2176513671875	1247.986083984375	-940.3480834960936	276.2362976074219	1189.163330078125	-949.0446166992186	236.3022308349609	1187.360229492188	-914.3337402343749	283.459228515625	964.6083984375	-922.4672851562499	340.7578125	911.5352172851564	-937.426513671875	292.3800964355469	902.5068359375	-927.7933959960938	326.2574768066406	816.1040039062501	-944.8504638671875	314.9922790527344	814.7930908203126	-1022.650817871094	
